# xmcd
#
# Track frame offsets:
#	150
#	9631
#	31958
#	42040
#	52110
#	67343
#	87062
#	113616
#	143627
#	150557
#	166524
#
# Disc length: 2433 seconds
#
# Revision: 3
# Processed by: cddbd v1.5.2PL0 Copyright (c) Steve Scherf et al.
# Submitted via: audiograbber 1.83.01
#
DISCID=81097f0b
DTITLE=Songs 4 Worship - Songs 4 Worship Volume 19 - Make A Joyful Noise  - DIS
DTITLE=C 1. 2003
DYEAR=2003
DGENRE=Worship and Praise
TTITLE0=Paul Wilbur - Let God Arise
TTITLE1=Kent Henry - Victory Song - For The Lord Is Marching On
TTITLE2=Jeff Hamlin - God Is My Refuge
TTITLE3=Randy Rothwell - Make A Joyful Noise
TTITLE4=Don Moen - Hallelujah To The Lamb
TTITLE5=Albin Slaughter - Jesus You Are Welcome
TTITLE6=Tommy Walker - Lord I Believe In You
TTITLE7=Darlene Zschech - Holy Spirit Rain Down
TTITLE8=Maranatha Singers - Here I Am
TTITLE9=Maranatha Singers - Lord Your Are So Precious To Me
TTITLE10=Andrae Crouch - My Tribute
EXTD=
EXTT0=
EXTT1=
EXTT2=
EXTT3=
EXTT4=
EXTT5=
EXTT6=
EXTT7=
EXTT8=
EXTT9=
EXTT10=
PLAYORDER=
